/* XPM */
static char *_f9f6b729e1b4822ab20c021faaf53a4fRFZTeFFtqjvEazL[] = {
/* columns rows colors chars-per-pixel */
"64 64 79 1 ",
"  c #CCAE76",
". c #C7AE7B",
"X c #CCB37D",
"o c #D4B57C",
"O c #D8B77D",
"+ c #D6B87F",
"@ c #DCBB7F",
"# c #E1BD7E",
"$ c #CEB880",
"% c #D2B780",
"& c #D5BC83",
"* c #DCBD82",
"= c #D7BF88",
"- c #E1BE82",
"; c #DDC185",
": c #D4C48A",
"> c #DDC48A",
", c #DEC98E",
"< c #DACB90",
"1 c #E3C385",
"2 c #E9C686",
"3 c #EBC887",
"4 c #E4C689",
"5 c #E9C788",
"6 c #E6C98C",
"7 c #EBCC8C",
"8 c #F1C984",
"9 c #F1CE8C",
"0 c #EED08F",
"q c #F2D18F",
"w c #E5CD91",
"e c #E7CD92",
"r c #E7CF93",
"t c #EBCD90",
"y c #EACE90",
"u c #ECCF91",
"i c #F2CF90",
"p c #E4D294",
"a c #E7D496",
"s c #E9D090",
"d c #EED090",
"f c #EED193",
"g c #EDD393",
"h c #ECD491",
"j c #E9D194",
"k c #EFD495",
"l c #EFD697",
"z c #EDD997",
"x c #EDD698",
"c c #EDD898",
"v c #EDDA9A",
"b c #EFDF9D",
"n c #F1D191",
"m c #F1D293",
"M c #F6D290",
"N c #F5D591",
"B c #F6D490",
"V c #F3D394",
"C c #F0D494",
"Z c #F0D595",
"A c #F6D594",
"S c #F4D696",
"D c #F9D391",
"F c #F9D793",
"G c #F8D595",
"H c #F4D895",
"J c #F5D996",
"K c #F6DB96",
"L c #FAD894",
"P c #F9D996",
"I c #F0D498",
"U c #F2D798",
"Y c #F3DA99",
"T c #F4DB9A",
"R c #F1DC9E",
"E c #F8DA98",
"W c #F9DC9B",
"Q c #FDE09D",
"! c #F7EAA8",
/* pixels */
"k6tts7w4;5659n9Nn6;*-4-7CGnj463qRTLq761s7t644667Cit7727qkkd4129d",
"76t7td7d71-29DWPq76-;&&1tGt777666nT6716774446567tZt79d779a72*#st",
"qnn7703704;6nqTFqFq66>&6t77t062664e677t7n76*16tnnTn97TZ6N573@37k",
"nNP76;14a411cTnGGLGP9t57356fZ7664>>43a77st247tttnnnd766163673C7k",
"Nqk61:*;>&4scT7nTNFDNNnn276CG77776167Zt9td577676nnnnd7>4*-;#7J9q",
"n7d64O+**&47RWZn7677n7ni2617nCqZSfttanddtt75t44112ZJM71>;-117700",
"d67e61265667dT0Z24441***1627777tSTZ6d7s6**1461*>42ZNFCqc673131d7",
"7e6a62779t667YCj>>&&ooo@*646271t77dnZ9t6*>>1->*&o>j7796xqKq711a4",
">>*662577t777Cfd4,&:@o&@>4tq86&:>6d9stf7*4464>@o*;d2tnbx3qq076k6",
">;*t2737s67t7nZd6>:*1772>46722*&&67726j929sk64&ooo6;k7cx7qZd6664",
"6646777dt667nnSC6>>78Dq96267211*67756s7757ZPk76*oo*606t>3306>e60",
"dk9t260d7t66CMGSe4;67q7767tt62146999kd66;26dn70211167s1>1550642k",
"qd7720dEZC566tiEt6477d6267tnTM646770zZ64*1;67073t7t9tZ761777667S",
"26t7;46dnS764j7n64*47s4-*447NN725906666421#266217d77Cd775-9973t6",
"**e446;479776dt61->666>>6***2Z793z6,6074;12772@1127797641379nS76",
";166t4*;77777771@>264;>471@oo66q97>66n7611337661*&*7n76t2599n774",
"776et611399737722677716f921+o*6A7766tt7t6156qtZ7**>7d77tt9762t76",
"2k0Yttt7qq8765377627q7tf9921*;*617s76ttn772466MZ7***77ZqFn722s63",
"17qN7t77031777236411Yd7612701@;1*667776777676646t7744:;27Z777q77",
"77qFfs471;*>67037667ZW74>;2a1*+:&-2nn776466dt6*46n97*Xo&7tn7TFFq",
"S599Sd66>1@465799ndtqWd6*116>1*6*44ZD7644ptPED6>tZEn1*o@46n60qqN",
"NGq9ddd611>>>46tMMM9SPQYq7>*>6>6677UP99Dfs6nESn67szt521*4066379Y",
"dZ977tx527a6;;177nn777jRqq7;6tf0dt5t7996r7t77Zn66e6737376041-q7Q",
"SNZ766C7367e44**@>6->*>p776677ZnCt1<6221*>1*1,;:*e6e7773776-#76Y",
"nDU7t6d75eq0776>O&,*&&*>&*567@67Sf6p**>*o&-*1<==*66677997564#73Z",
"JTEMZtf76647dd34@o>11144&&*1@o;6Zt6e;o**@:*-pe;>;4777qq77676162n",
"ECZZTZt-:&*7dn7777t779qa4111*+*47276>O-66767xYYi6>159776444777tN",
"n767tC7*X. *67nSKqnkZqqq214#26***&677676677nkbnSt1*6d961O3607677",
"64e47ft>X.X*66ZnNFn7dd776-47nZ74&o6d76544;5FTWnSt7*>14;=*2ZZ7*>>",
"46666776>*114177qTM72s7724128qN7**6n7t24>&197q0q7q;*4774416d6>@>",
"jff77264;7st61160Zn6*67nka77q9PJ77dS7>;4>@-246t7271-6776676641>2",
"!UMn66*64qdd76-6kZd7627TckZ983Dnd7fss6s72577177n76427U76e26p676N",
"RTGn766j7766176dUn777777kk0111q0f6tes7e4-5559nqNq61*-4>6fNnj4679",
"6dJ75166766>65176Zt09Z777Z72##e0767tsf7d7116MDQPM66->+*17St76776",
"64e657tdt74*17snnTn03Rd7Nd24O3qkndn77777s4*5tMJNDMq66>*6777df754",
"4;>67d77dt2477t7nD00774163776C7ZMMP06>;2j416cTnSSDFPit67726nZ766",
"76>6dkt7ts5776t706Dnd711*1;#7q9qN0k64:**4=1sUY6MJSMFNMtM266ZS777",
"Zns7jdddtt75724>62zGM7>>*;1177q0n7d6>+O**&17RTZZ7775n9nq2627nZNq",
"STf7dtt411146>*>17ZSNnsc772112t7066e21623446nTfZ64664***16267777",
"77dnZ9t7*=:111*+o>s7700k0Fq561a67t2a77779t66tSZa1*&&oX%@*166271d",
">6t9ntf7@44644*XO1n17qbk7qq677p64>*<55337t777nnd4<&;@@@o;6t985o:",
"&67345j93qsZ64@Xoo6-k7ba99qq6664>;*e6577s6tttfZn6,&*17724>6736;&",
"6t774jt727MPt76;oo*4s6t,67t7>77dt416757dt477ZNSn6>>779q76667211>",
"6799af65*766Z70111667e1>1377664k7J7d67sdt666dMNJ7>>79q0767t76212",
"277dcf74*1;67777q6777Y66125t677ZMd7t3tdJSd666tnTs61770724770Tq62",
"6dds776442#667227dn2dn77626977s517s51670nT776t7t64>;6e4;>467MJ62",
"3z6,67t4--2771*12477n7641599qn76**e416>677777t761-1664>>4***3k77",
"071,7776#2377661*&-6n66t2599n97611e464**779577t1*-666->471@o+66M",
"77676t7761527jZ71*>7d76tt9932e65776e663179977772557t716j921@X*6G",
"13e777nn772666nN7-*>77ZnLn742s751ZnYd7t7998756577657M7tZq931***7",
"*46777776t6t66407764>:*19d767q7717nN7t67782677236441Z07411971*>1",
"@>3d9te5466nt6*>6nq7*oo*7dM7YFFN03nJff4614&>47937567KRd4;12a1*&&",
":65Sqt646p7SJn646JTn-&+*1t76s9qSZ799k0661;@447t999ttnWn4*->p>-*4",
"467ZLq9qns79PGn46sUt721*;776799TZFq9qkd711>>>16tMMqnGEWTn7*;>w1w",
"7d7j7797ft77dad666t737756d41#q9TfZq357Z527z0>**77qn7770RqN6;6ttt",
"nt*<732-*=>>3,>;;e4779727t6>#77JZNS266k7576616>*@>6->*>p377677kn",
"Sd6p1#;*o&1>*<=&*6667tq77264#67JnMY666d737fd773>o&6*&&:>**277#67",
"Ct6<>o&;**>*ee4:*1677MM77656262dGTWnUnd76>27dd66*&>>115<&+@1@o=7",
"t276>@;62667cYUd6>1197761667707NPZZZZZ7>:o*7dn7767t679qs4*11*+*4",
"*&676226677nkWMkt4-6n761*1607676M777nZ7*XX *67dSPqnMM9nq614#56@*",
"&o69d626416DYWknt7***6;*-1Zn6;>;6>667Ct>o.o*66CANJq7sd777162qq01",
"**6n7e21>*1n7qdn791>6774117t6;@;44e657t6*=>*44769WN727t76*17qqZ0",
"77tSt>*1>O1117e7571-6777766641>7aft76566>5dt61119Sn7#67qZs7799FJ",
"f7n0s6C717271s8Zt6657d76e6ta665S!UDn36*46nCt72>eZZt6637RcZn982Nq"
};
